/* XPM */
static char * bottom_right_inactive_xpm[] = {
"7 7 3 1",
" 	c None",
".	c #21212D",
"+	c #000000",
"......+",
"......+",
"......+",
"......+",
"......+",
"......+",
"+++++++"};
