/* XPM */
static char * maximize_pressed_xpm[] = {
"21 20 7 1",
" 	c None",
".	c #000000",
"+	c #12171E",
"@	c #335A93",
"#	c #222B34",
"$	c #222B40",
"%	c #232B47",
"                     ",
"                     ",
"                     ",
"                     ",
"                     ",
"                     ",
"                     ",
"                     ",
"                     ",
"          .......... ",
"         .++++++++++.",
"         .@@@@@@@@@@.",
"         .@@@@@@@@@@.",
"         #..........#",
"          $%%%%%%%%$ ",
"                     ",
"                     ",
"                     ",
"                     ",
"                     "};
