/* XPM */
static char * menu_active_xpm[] = {
"21 20 7 1",
" 	c None",
".	c #000000",
"+	c #12171E",
"@	c #AB9A3C",
"#	c #222B34",
"$	c #27313B",
"%	c #2A3540",
"                     ",
"                     ",
"                     ",
"                     ",
"                     ",
"                     ",
"                     ",
"                     ",
"                     ",
" ..........          ",
".++++++++++.         ",
".@@@@@@@@@@.         ",
".@@@@@@@@@@.         ",
"#..........#         ",
" $%%%%%%%%$          ",
"                     ",
"                     ",
"                     ",
"                     ",
"                     "};
