/* XPM */
static char * title_3_inactive_xpm[] = {
"20 20 6 1",
" 	c None",
".	c #000000",
"+	c #12171D",
"@	c #364451",
"#	c #21212D",
"$	c #2A353F",
"....................",
"++++++++++++++++++++",
"++++++++++++++++++++",
"++++++++++++++++++++",
"....................",
"@@@@@@@@@@@@@@@@@@@@",
"####################",
"####################",
"####################",
"####################",
"####################",
"####################",
"####################",
"####################",
"####################",
"####################",
"####################",
"####################",
"....................",
"$$$$$$$$$$$$$$$$$$$$"};
